<svg width="92" height="80" viewBox="0 0 92 80" fill="none" xmlns="http://www.w3.org/2000/svg">
<path d="M40 5.5C41.3807 5.5 42.5 4.38071 42.5 3C42.5 1.61929 41.3807 0.5 40 0.5V5.5ZM16.5274 11.3986L18.1134 13.3311L16.5274 11.3986ZM3.71094 32.7817L1.25898 32.2939H1.25898L3.71094 32.7817ZM7.36891 57.4417L5.16411 58.6202L7.36891 57.4417ZM70.7644 60.5561L72.843 61.945V61.945L70.7644 60.5561ZM66.163 11.3371C64.7822 11.3371 63.663 12.4563 63.663 13.8371L63.6629 36.3371C63.6629 37.7178 64.7822 38.8371 66.1629 38.8371C67.5437 38.8371 68.6629 37.7178 68.6629 36.3371L68.663 16.3371L88.663 16.3371C90.0437 16.3371 91.163 15.2178 91.163 13.8371C91.163 12.4564 90.0437 11.3371 88.663 11.3371L66.163 11.3371ZM40 0.5C30.8615 0.5 22.0056 3.66866 14.9415 9.46609L18.1134 13.3311C24.2834 8.26757 32.0182 5.5 40 5.5V0.5ZM14.9415 9.46609C7.87728 15.2635 3.04182 23.331 1.25898 32.2939L6.16291 33.2694C7.72007 25.441 11.9435 18.3947 18.1134 13.3311L14.9415 9.46609ZM1.25898 32.2939C-0.523858 41.2569 0.856235 50.5607 5.16411 58.6202L9.57372 56.2632C5.81114 49.2239 4.60574 41.0978 6.16291 33.2694L1.25898 32.2939ZM5.16411 58.6202C9.47198 66.6796 16.4411 72.9961 24.884 76.4932L26.7974 71.8738C19.4232 68.8194 13.3363 63.3025 9.57372 56.2632L5.16411 58.6202ZM24.884 76.4932C33.3269 79.9904 42.7212 80.4519 51.4662 77.7991L50.0148 73.0144C42.3768 75.3314 34.1716 74.9283 26.7974 71.8738L24.884 76.4932ZM51.4662 77.7991C60.2113 75.1464 67.7659 69.5434 72.843 61.945L68.6857 59.1672C64.2513 65.8038 57.6529 70.6975 50.0148 73.0144L51.4662 77.7991ZM72.843 61.945C77.9201 54.3466 80.2055 45.2229 79.3098 36.1283L74.3339 36.6184C75.1162 44.5617 73.1201 52.5306 68.6857 59.1672L72.843 61.945ZM79.3098 36.1283C78.4141 27.0338 74.3926 18.5312 67.9307 12.0693L64.3952 15.6048C70.0391 21.2488 73.5515 28.6751 74.3339 36.6184L79.3098 36.1283Z" fill="#D4D4D4"/>
</svg>
